<?xml version="1.0" encoding="utf-8"?>
<!-- Generator: Adobe Illustrator 21.1.0, SVG Export Plug-In . SVG Version: 6.00 Build 0)  -->
<svg version="1.1" id="Layer_2" xmlns="http://www.w3.org/2000/svg" xmlns:xlink="http://www.w3.org/1999/xlink" x="0px" y="0px"
	 viewBox="0 0 600 400" style="enable-background:new 0 0 600 400;" xml:space="preserve">
<style type="text/css">
	.st0{fill:#C0E0E6;}
	.st1{fill:#A5D2DB;}
	.st2{fill:#F0EFF4;}
	.st3{fill:#413C57;}
	.st4{fill:none;stroke:#8AA5C4;stroke-width:4.2236;stroke-linecap:round;stroke-linejoin:round;stroke-miterlimit:10;}
	.st5{fill:#8AA5C4;}
	.st6{fill:none;stroke:#D9D9E2;stroke-width:4.2236;stroke-linecap:round;stroke-linejoin:round;stroke-miterlimit:10;}
	.st7{fill:none;stroke:#2C2F44;stroke-width:4.2236;stroke-linecap:round;stroke-linejoin:round;stroke-miterlimit:10;}
</style>
<path class="st0" d="M132,32.8c0.6-15.6,62.5-28.9,94-13.5S318.1,63,335,97.2s37.8,48.4,46.9,46.2L361,158.2
	c0,0,104.5,249.2,54.1,360.1S76.7,525,76.7,525s172.1,9.1,140.4-166.4S168.6,74.4,150.2,53.5S131.2,48.2,132,32.8z"/>
<g>
	<path class="st0" d="M383.6,222.8c0,0,53.9,130.7,88.9,111.3c34.8-19.4-30-111.1,0-128.4c30-17.3,59.3,14.6,59.3,14.6
		s-36.3-14.6-32.1,18.8c4.2,33.6,56,134.7,2.1,152.9s-96.3-34.8-96.3-34.8l-0.2-0.4C377.6,317.6,369.6,268.2,383.6,222.8
		L383.6,222.8z"/>
</g>
<path class="st1" d="M388.8,234.8c-3.3-7.4-5.2-12-5.2-12c-13.9,45.4-5.9,94.8,21.8,133.9l0.2,0.4c0,0,6.5,8.1,17.7,16.9
	C415.6,324.6,401.6,274.3,388.8,234.8z"/>
<g>
	<path class="st0" d="M259.6,293.4c6.1,14.4-2.1,130.3-103.7,139.6c-12,0-48.6-35.9-67.8,5.7c0,0-23.9-47.3,30.2-50.7
		c54.3-3.6,97.1-18,98.8-130.5C247.1,248,253.3,279,259.6,293.4z"/>
	<path class="st0" d="M259.6,293.4c6.1,14.4-2.1,130.3-103.7,139.6c-12,0-48.6-35.9-67.8,5.7c0,0-23.9-47.3,30.2-50.7
		c54.3-3.6,97.1-18,98.8-130.5C247.1,248,253.3,279,259.6,293.4z"/>
</g>
<path class="st1" d="M217.1,257.5c-0.4,25.3-2.8,45.6-7,62c2.3,12.7,4.6,25.7,7,39.2c3.1,17.1,4.2,32.3,3.8,46.1
	c40-37.9,43.1-101,38.7-111.3C253.3,279,247.1,248,217.1,257.5z"/>
<polygon class="st2" points="237,184.4 256,227.3 256,188 "/>
<path class="st3" d="M255.6,118.7c3-14.4-10.3-27.5-24.7-24.1c-6.3,1.5-9.5,5.7-6.3,12.5c6.3,13.3,28.9,21.8,31,12
	C255.6,118.9,255.6,118.9,255.6,118.7z"/>
<path class="st3" d="M299.5,78.8c-5.3-9.1-31.7-5.5-19.6,11.6S310.1,97.2,299.5,78.8z"/>
<path class="st3" d="M257.1,71.6c13.9-5.9,6.5-27.5-8-23.2c-3,0.8-5.1,2.3-5.7,4c-2.1,5.5,2.3,22.8,11.8,20.1
	C255.8,72,256.4,71.8,257.1,71.6z"/>
<path class="st4" d="M205.1,332c-1.7-9.7-3.4-19.2-5.1-28.5c-25.8-145.1-41-234.6-57.4-253.4c-18.4-20.9-19-5.3-18.4-20.9
	c0.8-15.6,62.7-29.1,94.4-13.7s92.3,43.7,109.2,78.1s38,48.6,47.1,46.5l-21.1,14.8c0,0,105,249.8,54.3,361.1s-339.4,7.2-339.4,7.2
	S206,530.5,213.1,407"/>
<path class="st4" d="M376.2,215.2c0,0,54.3,131.8,89.5,112.1c35.3-19.6-30.2-111.9,0-129.5s59.8,14.8,59.8,14.8s-36.5-14.8-32.3,19
	s56.4,135.8,2.1,154.2c-33.2,11.2-62.3-4.6-79.6-18.4"/>
<g>
	<path class="st5" d="M253.9,288.1c-0.4,15.8-2.7,31.7-6.5,47.1c-4,15.4-9.7,30.4-18.2,44.1c-4.2,6.8-9.1,13.3-14.6,19.2
		c-5.5,5.9-11.8,11-18.6,15.4c-13.5,8.9-29.6,13.5-45.6,15.2h-0.2c-2.1,0-3.8-0.6-5.5-1.3s-3.2-1.3-4.6-2.1l-8.9-4.4
		c-5.9-2.7-11.8-5.3-18.2-6.1c-6.1-1.1-12.5,0.2-17.3,3.8c-5.1,3.6-8.4,9.1-11.2,14.8l0,0c-0.4,1.1-1.7,1.5-2.7,1.1
		c-0.4-0.2-0.8-0.6-1.1-1.1c-2.5-5.3-4-10.6-4.9-16.3c-0.8-5.7-0.6-11.6,1.3-17.1c1.9-5.7,6.1-10.3,11-13.3c4.9-3.2,10.6-4.6,16-5.7
		c1.5-0.2,2.7-0.4,4.2-0.6l4.2-0.4l8.2-0.6c5.5-0.4,10.8-1.1,16-1.9c10.6-1.7,21.1-4.4,30.6-9.7c4.9-2.5,8.9-5.7,12.9-9.3l2.7-3
		c0.8-1.1,1.9-1.9,2.7-3c1.7-2.1,3.4-4.2,4.6-6.5c1.5-2.3,3-4.4,4-7c1.3-2.3,2.5-4.9,3.4-7.4c2.1-5.1,3.8-10.1,5.3-15.4
		c5.7-20.9,7.4-42.9,8-64.8c0.2,11,0,22-1.1,32.7c-0.8,11-2.5,21.8-5.1,32.5c-1.3,5.3-3,10.6-5.1,15.6c-0.8,2.5-2.1,5.1-3.4,7.6
		c-1.1,2.5-2.5,4.9-4,7.2c-1.3,2.5-3.2,4.6-4.9,6.8c-0.8,1.1-1.7,2.1-2.7,3.2l-2.7,3.2c-4.2,3.8-8.4,7.4-13.5,9.9
		c-4.9,3-10.1,4.9-15.4,6.8c-5.3,1.7-10.8,3-16.3,3.8c-5.5,1.1-11,1.5-16.5,2.1l-8.2,0.6l-4,0.4c-1.3,0.2-2.5,0.4-4,0.6
		c-5.3,1.1-10.3,2.5-14.6,5.3c-4.4,2.7-7.8,6.5-9.3,11.4c-1.7,4.6-1.9,10.1-1.1,15.2s2.3,10.3,4.6,15h-3.8c1.5-3.2,3-6.1,5.1-8.9
		s4.4-5.5,7.4-7.4c3-2.1,6.3-3.6,9.7-4.2c3.6-0.6,7.2-0.6,10.6-0.2c7,1.1,13.3,3.8,19.2,6.8l8.9,4.4c1.5,0.6,3,1.5,4.4,1.9
		c1.5,0.6,3,1.1,4,1.1h-0.2c15.4-1.5,30.8-5.9,44.1-14.4c13.3-8.2,24.3-19.9,32.7-33.2c8.4-13.3,14.4-28.1,18.8-43.3
		c2.1-7.6,4-15.4,5.3-23.2C252.4,303.9,253.5,295.9,253.9,288.1z"/>
</g>
<polygon class="st6" points="234.9,182.3 253.9,225.4 253.9,186.1 "/>
<path class="st4" d="M193.6,160c14.2,13.2,77.3,60.8,181.3-20"/>
<path class="st7" d="M253.9,118.7c3-14.4-10.3-27.5-24.7-24.1c-6.3,1.5-9.5,5.7-6.3,12.5c6.3,13.3,28.9,21.8,31,12
	C253.9,118.9,253.9,118.9,253.9,118.7z"/>
<path class="st7" d="M299.5,82.4c-5.3-9.1-31.7-5.5-19.6,11.6S310.1,100.8,299.5,82.4z"/>
<path class="st7" d="M253.5,71.6c13.9-5.9,6.5-27.5-8-23.2c-3,0.8-5.1,2.3-5.7,4c-2.1,5.5,2.3,22.8,11.8,20.1
	C252.2,72,252.8,71.8,253.5,71.6z"/>
<g>
	<path class="st5" d="M209.5,144.1c-4.2,4.6-8.7,8.7-12.7,12.7c-2.1,2.1-4.2,4.2-5.9,6.3c-1.9,2.3-3.6,4.6-5.3,7.2
		c0-3.2,1.1-6.3,2.5-9.1c1.5-2.7,3.6-5.3,5.7-7.6c2.1-2.3,4.6-4.2,7.2-5.9C203.6,146.4,206.4,144.9,209.5,144.1z"/>
</g>
</svg>
